<?xml version="1.0" encoding="utf-8"?>
<!-- Generator: Adobe Illustrator 16.0.0, SVG Export Plug-In . SVG Version: 6.00 Build 0)  -->
<!DOCTYPE svg PUBLIC "-//W3C//DTD SVG 1.1//EN" "http://www.w3.org/Graphics/SVG/1.1/DTD/svg11.dtd">
<svg version="1.1" xmlns="http://www.w3.org/2000/svg" xmlns:xlink="http://www.w3.org/1999/xlink" x="0px" y="0px" width="180px"
	 height="45px" viewBox="0 0 180 45" enable-background="new 0 0 180 45" xml:space="preserve">
<g id="圖層_1">
	<path fill-rule="evenodd" clip-rule="evenodd" fill="#565656" d="M14.155,15.638c0-2.632-0.001-5.264,0.001-7.895
		c0-0.387,0.007-0.391,0.411-0.392c1.204-0.002,2.409,0.021,3.611-0.009c0.819-0.02,0.858,0.125,0.855,0.819
		c-0.015,2.968-0.007,5.935-0.007,8.902c0,0.14-0.004,0.28,0.001,0.42c0.007,0.135,0.025,0.27,0.037,0.404
		c0.154-0.068,0.321-0.119,0.463-0.207c0.906-0.566,1.772-1.212,2.853-1.426c0.647-0.455,1.458-0.38,2.163-0.661
		c0.192-0.077,0.444,0.005,0.667-0.017c0.262-0.023,0.52,0.063,0.792-0.127c0.158-0.111,0.474-0.014,0.715,0.014
		c0.154,0.018,0.305,0.117,0.454,0.112c1.747-0.059,3.308,0.524,4.843,1.294c1.066,0.534,2.009,1.199,2.854,2.03
		c0.776,0.763,1.54,1.528,2.019,2.525c0.066,0.141,0.146,0.277,0.237,0.405c0.11,0.154,0.031,0.254-0.082,0.346
		c-0.06,0.049-0.131,0.087-0.2,0.125c-1.027,0.561-2.051,1.129-3.086,1.672c-0.191,0.102-0.264,0.525-0.582,0.277
		c-0.16-0.123-0.262-0.332-0.361-0.516c-0.51-0.953-1.25-1.69-2.143-2.268c-0.722-0.468-1.491-0.826-2.332-1.066
		c-0.334-0.096-0.688,0.019-0.945-0.135c-0.322-0.193-0.634-0.155-0.948-0.138c-0.314,0.017-0.673-0.161-0.942,0.15
		c-0.571-0.028-1.096,0.108-1.627,0.329c-0.607,0.252-1.744,0.847-2.159,1.275c-0.534,0.553-1.146,1.036-1.547,1.709
		c-0.028,0.047-0.089,0.074-0.116,0.121c-0.109,0.201,0.025,0.434,0.259,0.434c0.755,0.004,1.511,0,2.268,0.006
		c0.101,0,0.202,0.049,0.304,0.074c-0.055,0.059-0.125,0.109-0.162,0.18c-0.236,0.441-0.618,0.756-0.95,1.119
		c-0.737,0.803-1.504,1.578-2.14,2.471c-0.016,0.021-0.041,0.039-0.06,0.059c-0.831,0.889-1.665,1.773-2.491,2.666
		c-0.115,0.123-0.178,0.141-0.303,0.006c-0.885-0.953-1.827-1.859-2.649-2.861c-0.402-0.49-0.847-0.93-1.268-1.398
		c-0.533-0.592-1.071-1.178-1.6-1.773c-0.065-0.074-0.084-0.189-0.131-0.279c-0.054-0.105-0.347-0.26,0.052-0.264
		c0.728-0.006,1.456-0.002,2.184-0.002c0.14,0,0.304,0.047,0.414-0.012c0.147-0.076,0.308-0.213,0.36-0.359
		c0.062-0.174,0.015-0.387,0.015-0.584C14.155,20.676,14.155,18.157,14.155,15.638z"/>
	<path fill-rule="evenodd" clip-rule="evenodd" fill="#474747" d="M39.812,31.375c-0.504,0-1.008,0.008-1.511-0.004
		c-0.198-0.004-0.267,0.045-0.312,0.26c-0.063,0.299-0.227,0.574-0.342,0.863c-0.737,1.844-2.006,3.297-3.445,4.611
		c-0.813,0.744-3.217,2.043-4.328,2.297c-0.434,0.098-0.873,0.311-1.346,0.205c-0.713,0.313-1.464,0.121-2.196,0.166
		c-1.994,0.121-3.822-0.463-5.557-1.371c-0.897-0.469-1.756-1.006-2.461-1.766c-0.743-0.799-1.58-1.512-2.132-2.475
		c-0.041-0.072-0.163-0.117-0.168-0.182c-0.029-0.35-0.49-0.609-0.32-0.936c0.12-0.23,0.475-0.363,0.748-0.488
		c0.987-0.453,1.981-0.889,2.979-1.316c0.178-0.078,0.373-0.08,0.514,0.115c0.079,0.109,0.202,0.193,0.265,0.311
		c0.788,1.463,2.102,2.311,3.545,2.977c0.566,0.262,1.186,0.447,1.836,0.43c0.308-0.008,0.617-0.023,0.923,0.002
		c1.294,0.104,2.462-0.287,3.574-0.895c0.471-0.256,0.93-0.535,1.287-0.947c0.429-0.496,1.013-0.854,1.308-1.471
		c0.181-0.379,0.189-0.383-0.233-0.385c-0.895-0.006-1.791,0-2.686-0.006c-0.102,0-0.202-0.047-0.303-0.074
		c0.055-0.113,0.086-0.25,0.167-0.342c0.587-0.656,1.229-1.268,1.763-1.961c0.508-0.66,1.152-1.186,1.664-1.828
		c0.697-0.877,1.485-1.668,2.205-2.523c0.099-0.117,0.165-0.166,0.301-0.02c0.903,0.973,1.852,1.904,2.705,2.918
		c0.278,0.33,0.561,0.66,0.854,0.98c0.707,0.771,1.424,1.535,2.131,2.309c0.066,0.072,0.088,0.184,0.131,0.279
		c0.048,0.102,0.357,0.256-0.049,0.264C40.817,31.381,40.314,31.375,39.812,31.375z"/>
	<path fill-rule="evenodd" clip-rule="evenodd" fill="#FFFFFF" d="M265.48,440.102c0,2.439-0.002,4.879,0.001,7.32
		c0.001,0.395-0.085,0.838,0.066,1.17c0.136,0.299,0.671-0.07,0.954,0.26c0.075,0.088,0.289,0.066,0.44,0.076
		c0.651,0.049,1.332-0.148,1.94,0.242c1.593,0.027,3.184,0.047,4.722-0.479c1.347-0.459,2.294-1.414,2.888-2.635
		c0.49-1.008,0.597-2.172,0.738-3.289c0.142-1.125-0.2-2.213-0.495-3.273c-0.232-0.834-0.662-1.652-1.401-2.166
		c-0.729-0.504-1.564-0.854-2.418-1.1c-0.439-0.129-1.008,0.068-1.382-0.135c-0.562-0.307-0.959,0.145-1.411,0.098
		c-0.686-0.074-1.268,0.301-1.925,0.324c-0.154,0.006-0.312,0.285-0.315-0.096c-0.009-1.041,0-2.08-0.004-3.121
		c-0.002-0.596-0.014-1.193-0.021-1.791c-0.625-0.033-1.256-0.033-1.877-0.107c-0.477-0.057-0.512,0.148-0.509,0.541
		C265.487,434.662,265.48,437.381,265.48,440.102z"/>
	<path fill-rule="evenodd" clip-rule="evenodd" fill="#FFFFFF" d="M290.2,444.131c0-1.518,0.005-3.035-0.005-4.553
		c-0.002-0.262-0.033-0.508-0.131-0.781c-0.273-0.773-0.791-1.348-1.397-1.805c-0.623-0.469-1.43-0.609-2.188-0.768
		c-0.492-0.104-1.088,0.078-1.502-0.133c-0.565-0.289-0.956,0.139-1.41,0.102c-0.793-0.066-1.531,0.188-2.299,0.26
		c-0.738,0.07-0.902,0.26-0.907,0.979c-0.002,0.318-0.023,0.641,0.015,0.955c0.01,0.086,0.293,0.223,0.301,0.213
		c0.24-0.291,0.569-0.193,0.871-0.236c0.331-0.049,0.652-0.213,0.98-0.223c1.117-0.027,2.236-0.033,3.354-0.004
		c1.108,0.029,2.009,0.873,2.159,1.963c0.165,1.199-0.018,1.344-1.247,0.982c-0.07-0.02-0.143-0.074-0.209-0.068
		c-1.283,0.119-2.563-0.146-3.866,0.195c-1.036,0.271-1.965,0.574-2.653,1.418c-0.146,0.178-0.332,0.342-0.413,0.547
		c-0.123,0.311-0.222,0.646-0.241,0.977c-0.036,0.637-0.063,1.283,0.008,1.914c0.049,0.43,0.173,0.924,0.439,1.24
		c0.367,0.434,0.765,0.855,1.288,1.178c0.601,0.369,1.268,0.584,1.882,0.646c1.568,0.154,3.151,0.068,4.624-0.646
		c0.522-0.254,0.54-0.252,0.913,0.139c0.336,0.352,0.658,0.621,1.214,0.57c0.399-0.037,0.431-0.184,0.428-0.508
		C290.193,447.166,290.2,445.648,290.2,444.131z"/>
	<path fill-rule="evenodd" clip-rule="evenodd" fill="#FFFFFF" d="M315.074,443.41c1.318,0,2.637,0.008,3.955-0.004
		c0.504-0.006,0.68-0.197,0.688-0.715c0.012-0.758-0.011-1.518,0.008-2.277c0.013-0.506-0.052-0.98-0.234-1.461
		c-0.303-0.795-0.63-1.594-1.403-2.006c-0.753-0.402-1.497-0.908-2.452-0.756c-0.266,0.043-0.688-0.287-0.827-0.176
		c-0.412,0.324-0.837,0.172-1.249,0.186c-1.889,0.064-3.216,0.998-4.201,2.559c-0.793,1.256-0.743,2.678-0.9,4.059
		c-0.036,0.313,0.232,0.66,0.203,0.977c-0.052,0.563,0.097,1.084,0.275,1.574c0.599,1.643,1.643,2.84,3.408,3.355
		c0.377,0.111,0.754,0.111,1.103,0.225c0.367,0.121,0.714,0.205,1.104,0.234c1.381,0.105,2.73-0.197,4.097-0.254
		c0.372-0.014,0.569-0.227,0.587-0.576c0.022-0.439,0.019-0.881,0.002-1.318c-0.016-0.402-0.16-0.121-0.322-0.08
		c-0.3,0.072-0.628,0.016-0.938,0.063c-0.292,0.045-0.571,0.207-0.861,0.221c-0.677,0.035-1.366,0.078-2.034-0.01
		c-0.484-0.064-1.021-0.107-1.442-0.266c-0.535-0.203-1.119-0.342-1.613-0.76c-0.776-0.656-0.923-1.541-1.179-2.404
		c-0.091-0.305,0.086-0.398,0.392-0.395C312.517,443.418,313.795,443.41,315.074,443.41z"/>
	<path fill-rule="evenodd" clip-rule="evenodd" fill="#FFFFFF" d="M301.96,440.525c0,2.035-0.037,4.072,0.02,6.105
		c0.021,0.734,0.329,1.35,1.022,1.855c0.751,0.549,1.503,0.707,2.362,0.684c0.436-0.012,0.87-0.02,1.306-0.029
		c0.03-0.467,0.027-0.938,0.099-1.398c0.077-0.492-0.171-0.545-0.546-0.492c-0.668,0.094-1.285-0.01-1.643-0.639
		c-0.215-0.379-0.432-0.824-0.439-1.244c-0.043-2.275-0.026-4.551-0.016-6.826c0.002-0.477,0.054-0.469,0.652-0.418
		c0.477,0.039,0.959,0.027,1.437-0.002c0.214-0.014,0.444-0.094,0.628-0.205c0.354-0.217-0.144-0.322-0.1-0.551
		c0.067-0.348,0.035-0.717,0.007-1.074c-0.009-0.111-0.142-0.307-0.219-0.307c-0.788,0.002-1.577,0.021-2.363,0.074
		c-0.113,0.008-0.206,0.258-0.29-0.041c-0.149-0.535-0.341-1.061-0.465-1.602c-0.048-0.207-0.027-0.391-0.313-0.367
		c-0.119,0.01-0.239,0.002-0.359,0.002c-0.774-0.004-0.778-0.004-0.779,0.727C301.958,436.693,301.96,438.609,301.96,440.525z"/>
	<path fill-rule="evenodd" clip-rule="evenodd" fill="#FFFFFF" d="M323.746,449.186c0.001-0.006,0.001-0.01,0.001-0.016
		c0.199,0,0.399,0.002,0.599,0c0.646-0.008,0.652-0.008,0.653-0.613c0.002-2.676,0.038-5.352-0.022-8.025
		c-0.018-0.74,0.246-1.27,0.797-1.58c0.738-0.414,1.502-0.842,2.411-0.826c0.649,0.01,0.651-0.014,0.654-0.727
		c0.002-0.359,0.022-0.721-0.03-1.072c-0.01-0.064-0.154-0.502-0.492-0.209c-0.098,0.086-0.29,0.098-0.436,0.088
		c-1.023-0.068-1.78,0.523-2.573,1.021c-0.222,0.141-0.363,0.547-0.646,0.391c-0.142-0.078-0.101-0.49-0.141-0.752
		c-0.006-0.039,0.006-0.082-0.001-0.119c-0.123-0.648-1.136-1.037-1.683-0.656c-0.329,0.229-0.234,0.559-0.234,0.861
		c-0.004,3.674-0.005,7.348,0.001,11.02c0.001,0.389-0.069,0.861,0.123,1.133C322.854,449.283,323.393,449.168,323.746,449.186z"/>
	<path fill-rule="evenodd" clip-rule="evenodd" fill="#FFFFFF" d="M293.561,442.703c0,1.637-0.008,3.273,0.004,4.91
		c0.003,0.508,0.053,1.016,0.081,1.521c0.474,0.012,0.948,0.033,1.423,0.033c0.888,0.002,0.891-0.002,0.891-0.854
		c0.002-2.676-0.002-5.35,0.006-8.025c0-0.26-0.09-0.535,0.16-0.773c0.788-0.748,1.66-1.326,2.782-1.381
		c0.893-0.041,0.895-0.02,0.893-0.979c-0.001-0.277,0.037-0.566-0.027-0.83c-0.029-0.121-0.341-0.303-0.393-0.266
		c-0.442,0.307-0.949,0.014-1.374,0.166c-0.447,0.164-0.854,0.451-1.262,0.707c-0.353,0.221-0.711,0.703-1.016,0.666
		c-0.523-0.066-0.133-0.768-0.467-1.137c-0.349-0.385-0.723-0.654-1.274-0.488c-0.42,0.129-0.436,0.48-0.433,0.859
		C293.566,438.789,293.561,440.746,293.561,442.703z"/>
	<path fill-rule="evenodd" clip-rule="evenodd" d="M265.48,440.102c0-2.721,0.007-5.439-0.009-8.16
		c-0.003-0.393,0.032-0.598,0.509-0.541c0.621,0.074,1.252,0.074,1.877,0.107c0.008,0.598,0.02,1.195,0.021,1.791
		c0.004,1.041-0.005,2.08,0.004,3.121c0.004,0.381,0.161,0.102,0.315,0.096c0.657-0.023,1.239-0.398,1.925-0.324
		c0.452,0.047,0.85-0.404,1.411-0.098c0.374,0.203,0.942,0.006,1.382,0.135c0.854,0.246,1.689,0.596,2.418,1.1
		c0.739,0.514,1.169,1.332,1.401,2.166c0.295,1.061,0.637,2.148,0.495,3.273c-0.142,1.117-0.248,2.281-0.738,3.289
		c-0.594,1.221-1.541,2.176-2.888,2.635c-1.538,0.525-3.129,0.506-4.722,0.479c-0.608-0.391-1.289-0.193-1.94-0.242
		c-0.151-0.01-0.365,0.012-0.44-0.076c-0.283-0.33-0.818,0.039-0.954-0.26c-0.151-0.332-0.065-0.775-0.066-1.17
		C265.479,444.98,265.48,442.541,265.48,440.102z M267.88,442.67c0,1.195-0.005,2.391,0.003,3.586
		c0.004,0.471,0.18,0.73,0.529,0.748c0.613,0.029,1.219-0.012,1.818,0.23c0.489,0.199,0.963-0.18,1.449-0.215
		c1.478-0.111,2.604-1.4,2.942-2.68c0.235-0.889,0.214-1.768,0.215-2.656c0.003-2.018-1.42-3.482-3.494-3.564
		c-1.093-0.043-2.122,0.164-3.153,0.477c-0.239,0.072-0.316,0.127-0.314,0.369C267.885,440.199,267.88,441.434,267.88,442.67z"/>
	<path fill-rule="evenodd" clip-rule="evenodd" d="M290.2,444.131c0,1.518-0.007,3.035,0.006,4.553
		c0.003,0.324-0.028,0.471-0.428,0.508c-0.556,0.051-0.878-0.219-1.214-0.57c-0.373-0.391-0.391-0.393-0.913-0.139
		c-1.473,0.715-3.056,0.801-4.624,0.646c-0.614-0.063-1.281-0.277-1.882-0.646c-0.523-0.322-0.921-0.744-1.288-1.178
		c-0.267-0.316-0.391-0.811-0.439-1.24c-0.07-0.631-0.044-1.277-0.008-1.914c0.02-0.33,0.118-0.666,0.241-0.977
		c0.081-0.205,0.268-0.369,0.413-0.547c0.688-0.844,1.617-1.146,2.653-1.418c1.303-0.342,2.583-0.076,3.866-0.195
		c0.066-0.006,0.139,0.049,0.209,0.068c1.229,0.361,1.412,0.217,1.247-0.982c-0.15-1.09-1.051-1.934-2.159-1.963
		c-1.117-0.029-2.236-0.023-3.354,0.004c-0.328,0.01-0.649,0.174-0.98,0.223c-0.302,0.043-0.631-0.055-0.871,0.236
		c-0.008,0.01-0.291-0.127-0.301-0.213c-0.038-0.314-0.017-0.637-0.015-0.955c0.005-0.719,0.169-0.908,0.907-0.979
		c0.768-0.072,1.506-0.326,2.299-0.26c0.454,0.037,0.845-0.391,1.41-0.102c0.414,0.211,1.01,0.029,1.502,0.133
		c0.759,0.158,1.565,0.299,2.188,0.768c0.606,0.457,1.124,1.031,1.397,1.805c0.098,0.273,0.129,0.52,0.131,0.781
		C290.205,441.096,290.2,442.613,290.2,444.131z M285.288,442.871c-0.003,0.02-0.005,0.039-0.009,0.059
		c-0.516,0-1.035-0.025-1.55,0.012c-0.249,0.018-0.496,0.137-0.735,0.232c-0.428,0.168-0.893,0.35-1.099,0.768
		c-0.192,0.393-0.362,0.879-0.3,1.287c0.068,0.445,0.193,0.928,0.554,1.318c0.425,0.463,0.97,0.584,1.511,0.689
		c0.969,0.189,1.915-0.146,2.857-0.299c0.52-0.084,1.074-0.389,1.448-0.762c0.202-0.201,0.067-0.75,0.073-1.141
		c0.006-0.518,0.014-1.035-0.01-1.551c-0.005-0.109-0.135-0.289-0.226-0.303C286.968,443.063,286.127,442.971,285.288,442.871z"/>
	<path fill-rule="evenodd" clip-rule="evenodd" d="M315.074,443.41c-1.279,0-2.558,0.008-3.836-0.006
		c-0.306-0.004-0.482,0.09-0.392,0.395c0.256,0.863,0.402,1.748,1.179,2.404c0.494,0.418,1.078,0.557,1.613,0.76
		c0.422,0.158,0.958,0.201,1.442,0.266c0.668,0.088,1.357,0.045,2.034,0.01c0.29-0.014,0.569-0.176,0.861-0.221
		c0.31-0.047,0.638,0.01,0.938-0.063c0.162-0.041,0.307-0.322,0.322,0.08c0.017,0.438,0.021,0.879-0.002,1.318
		c-0.018,0.35-0.215,0.563-0.587,0.576c-1.366,0.057-2.716,0.359-4.097,0.254c-0.391-0.029-0.737-0.113-1.104-0.234
		c-0.349-0.113-0.726-0.113-1.103-0.225c-1.766-0.516-2.81-1.713-3.408-3.355c-0.179-0.49-0.327-1.012-0.275-1.574
		c0.029-0.316-0.239-0.664-0.203-0.977c0.157-1.381,0.107-2.803,0.9-4.059c0.985-1.561,2.313-2.494,4.201-2.559
		c0.412-0.014,0.837,0.139,1.249-0.186c0.139-0.111,0.562,0.219,0.827,0.176c0.955-0.152,1.699,0.354,2.452,0.756
		c0.773,0.412,1.101,1.211,1.403,2.006c0.183,0.48,0.247,0.955,0.234,1.461c-0.019,0.76,0.004,1.52-0.008,2.277
		c-0.008,0.518-0.184,0.709-0.688,0.715C317.711,443.418,316.393,443.41,315.074,443.41z M314.211,441.25
		c0.914,0,1.829,0.004,2.743,0c0.594-0.004,0.756-0.197,0.599-0.773c-0.086-0.318-0.228-0.623-0.37-0.92
		c-0.383-0.797-0.937-1.354-1.889-1.441c-0.403-0.037-0.862-0.441-1.191-0.195c-0.421,0.314-0.881,0.041-1.221,0.236
		c-0.826,0.477-1.609,1.033-1.807,2.08c-0.04,0.215-0.145,0.418-0.208,0.629c-0.063,0.213-0.047,0.387,0.243,0.385
		C312.144,441.25,313.178,441.25,314.211,441.25z"/>
	<path fill-rule="evenodd" clip-rule="evenodd" d="M301.96,440.525c0-1.916-0.002-3.832,0.001-5.748
		c0.001-0.73,0.005-0.73,0.779-0.727c0.12,0,0.24,0.008,0.359-0.002c0.285-0.023,0.265,0.16,0.313,0.367
		c0.124,0.541,0.315,1.066,0.465,1.602c0.084,0.299,0.177,0.049,0.29,0.041c0.786-0.053,1.575-0.072,2.363-0.074
		c0.077,0,0.21,0.195,0.219,0.307c0.028,0.357,0.061,0.727-0.007,1.074c-0.044,0.229,0.454,0.334,0.1,0.551
		c-0.184,0.111-0.414,0.191-0.628,0.205c-0.478,0.029-0.96,0.041-1.437,0.002c-0.599-0.051-0.65-0.059-0.652,0.418
		c-0.011,2.275-0.027,4.551,0.016,6.826c0.008,0.42,0.225,0.865,0.439,1.244c0.357,0.629,0.975,0.732,1.643,0.639
		c0.375-0.053,0.623,0,0.546,0.492c-0.071,0.461-0.068,0.932-0.099,1.398c-0.436,0.01-0.87,0.018-1.306,0.029
		c-0.859,0.023-1.611-0.135-2.362-0.684c-0.693-0.506-1.002-1.121-1.022-1.855C301.923,444.598,301.96,442.561,301.96,440.525z"/>
	<path fill-rule="evenodd" clip-rule="evenodd" d="M323.746,449.186c-0.354-0.018-0.892,0.098-1.02-0.082
		c-0.192-0.271-0.122-0.744-0.123-1.133c-0.006-3.672-0.005-7.346-0.001-11.02c0-0.303-0.095-0.633,0.234-0.861
		c0.547-0.381,1.56,0.008,1.683,0.656c0.007,0.037-0.005,0.08,0.001,0.119c0.04,0.262-0.001,0.674,0.141,0.752
		c0.283,0.156,0.425-0.25,0.646-0.391c0.793-0.498,1.55-1.09,2.573-1.021c0.146,0.01,0.338-0.002,0.436-0.088
		c0.338-0.293,0.482,0.145,0.492,0.209c0.053,0.352,0.032,0.713,0.03,1.072c-0.003,0.713-0.005,0.736-0.654,0.727
		c-0.909-0.016-1.673,0.412-2.411,0.826c-0.551,0.311-0.814,0.84-0.797,1.58c0.061,2.674,0.024,5.35,0.022,8.025
		c-0.001,0.605-0.007,0.605-0.653,0.613c-0.199,0.002-0.399,0-0.599,0C323.747,449.176,323.747,449.18,323.746,449.186z"/>
	<path fill-rule="evenodd" clip-rule="evenodd" fill="#626262" d="M293.561,442.703c0-1.957,0.006-3.914-0.006-5.869
		c-0.003-0.379,0.013-0.73,0.433-0.859c0.552-0.166,0.926,0.104,1.274,0.488c0.334,0.369-0.057,1.07,0.467,1.137
		c0.305,0.037,0.663-0.445,1.016-0.666c0.408-0.256,0.814-0.543,1.262-0.707c0.425-0.152,0.932,0.141,1.374-0.166
		c0.052-0.037,0.363,0.145,0.393,0.266c0.064,0.264,0.026,0.553,0.027,0.83c0.002,0.959,0,0.938-0.893,0.979
		c-1.122,0.055-1.994,0.633-2.782,1.381c-0.25,0.238-0.16,0.514-0.16,0.773c-0.008,2.676-0.004,5.35-0.006,8.025
		c0,0.852-0.003,0.855-0.891,0.854c-0.475,0-0.949-0.021-1.423-0.033c-0.028-0.506-0.078-1.014-0.081-1.521
		C293.553,445.977,293.561,444.34,293.561,442.703z"/>
	<path fill-rule="evenodd" clip-rule="evenodd" fill="#FFFFFF" d="M267.88,442.67c0-1.236,0.005-2.471-0.005-3.705
		c-0.002-0.242,0.075-0.297,0.314-0.369c1.031-0.313,2.061-0.52,3.153-0.477c2.074,0.082,3.497,1.547,3.494,3.564
		c-0.001,0.889,0.021,1.768-0.215,2.656c-0.338,1.279-1.465,2.568-2.942,2.68c-0.486,0.035-0.96,0.414-1.449,0.215
		c-0.6-0.242-1.205-0.201-1.818-0.23c-0.35-0.018-0.525-0.277-0.529-0.748C267.875,445.061,267.88,443.865,267.88,442.67z"/>
	<path fill-rule="evenodd" clip-rule="evenodd" fill="#FFFFFF" d="M285.288,442.871c0.839,0.1,1.68,0.191,2.516,0.311
		c0.091,0.014,0.221,0.193,0.226,0.303c0.023,0.516,0.016,1.033,0.01,1.551c-0.006,0.391,0.129,0.939-0.073,1.141
		c-0.374,0.373-0.929,0.678-1.448,0.762c-0.942,0.152-1.889,0.488-2.857,0.299c-0.541-0.105-1.086-0.227-1.511-0.689
		c-0.36-0.391-0.485-0.873-0.554-1.318c-0.063-0.408,0.107-0.895,0.3-1.287c0.206-0.418,0.671-0.6,1.099-0.768
		c0.239-0.096,0.486-0.215,0.735-0.232c0.515-0.037,1.034-0.012,1.55-0.012C285.283,442.91,285.285,442.891,285.288,442.871z"/>
	<path fill-rule="evenodd" clip-rule="evenodd" fill="#FFFFFF" d="M314.211,441.25c-1.033,0-2.067,0-3.101,0
		c-0.29,0.002-0.306-0.172-0.243-0.385c0.063-0.211,0.168-0.414,0.208-0.629c0.197-1.047,0.98-1.604,1.807-2.08
		c0.34-0.195,0.8,0.078,1.221-0.236c0.329-0.246,0.788,0.158,1.191,0.195c0.952,0.088,1.506,0.645,1.889,1.441
		c0.143,0.297,0.284,0.602,0.37,0.92c0.157,0.576-0.005,0.77-0.599,0.773C316.04,441.254,315.125,441.25,314.211,441.25z"/>
	<path fill-rule="evenodd" clip-rule="evenodd" fill="#FFFFFF" d="M77.98,17.602c0,2.439-0.001,4.879,0.001,7.32
		c0,0.395-0.084,0.838,0.066,1.17c0.136,0.299,0.671-0.07,0.955,0.26c0.075,0.088,0.289,0.066,0.44,0.076
		c0.651,0.049,1.332-0.148,1.94,0.242c1.593,0.027,3.184,0.047,4.722-0.479c1.347-0.459,2.294-1.414,2.887-2.635
		c0.49-1.008,0.597-2.172,0.738-3.289c0.142-1.125-0.2-2.213-0.495-3.273c-0.232-0.834-0.662-1.652-1.401-2.166
		c-0.729-0.504-1.565-0.854-2.417-1.1c-0.439-0.129-1.009,0.068-1.382-0.135c-0.562-0.307-0.959,0.145-1.412,0.098
		c-0.685-0.074-1.267,0.301-1.924,0.324c-0.154,0.006-0.312,0.285-0.315-0.096c-0.009-1.041-0.001-2.08-0.004-3.121
		c-0.002-0.596-0.014-1.193-0.021-1.791C79.732,8.975,79.102,8.975,78.48,8.9c-0.476-0.057-0.511,0.148-0.508,0.541
		C77.987,12.162,77.98,14.881,77.98,17.602z"/>
	<path fill-rule="evenodd" clip-rule="evenodd" fill="#FFFFFF" d="M102.7,21.631c0-1.518,0.005-3.035-0.005-4.553
		c-0.002-0.262-0.033-0.508-0.131-0.781c-0.273-0.773-0.791-1.348-1.397-1.805c-0.623-0.469-1.43-0.609-2.188-0.768
		c-0.492-0.104-1.088,0.078-1.502-0.133c-0.565-0.289-0.956,0.139-1.41,0.102c-0.793-0.066-1.531,0.188-2.299,0.26
		c-0.738,0.07-0.902,0.26-0.907,0.979c-0.002,0.318-0.023,0.641,0.015,0.955c0.01,0.086,0.293,0.223,0.301,0.213
		c0.24-0.291,0.569-0.193,0.871-0.236c0.331-0.049,0.652-0.213,0.98-0.223c1.117-0.027,2.236-0.033,3.354-0.004
		c1.108,0.029,2.009,0.873,2.159,1.963c0.165,1.199-0.018,1.344-1.247,0.982c-0.07-0.02-0.143-0.074-0.209-0.068
		c-1.283,0.119-2.563-0.146-3.866,0.195c-1.036,0.271-1.965,0.574-2.653,1.418c-0.146,0.178-0.332,0.342-0.413,0.547
		c-0.123,0.311-0.222,0.646-0.241,0.977c-0.036,0.637-0.063,1.283,0.008,1.914c0.049,0.43,0.173,0.924,0.439,1.24
		c0.367,0.434,0.765,0.855,1.288,1.178c0.601,0.369,1.268,0.584,1.882,0.646c1.568,0.154,3.151,0.068,4.624-0.646
		c0.522-0.254,0.54-0.252,0.913,0.139c0.336,0.352,0.658,0.621,1.214,0.57c0.399-0.037,0.431-0.184,0.428-0.508
		C102.693,24.666,102.7,23.148,102.7,21.631z"/>
	<path fill-rule="evenodd" clip-rule="evenodd" fill="#FFFFFF" d="M127.574,20.91c1.318,0,2.637,0.008,3.955-0.004
		c0.504-0.006,0.68-0.197,0.688-0.715c0.012-0.758-0.011-1.518,0.008-2.277c0.013-0.506-0.052-0.98-0.234-1.461
		c-0.303-0.795-0.63-1.594-1.403-2.006c-0.753-0.402-1.497-0.908-2.452-0.756c-0.266,0.043-0.688-0.287-0.827-0.176
		c-0.412,0.324-0.837,0.172-1.249,0.186c-1.889,0.064-3.216,0.998-4.201,2.559c-0.793,1.256-0.743,2.678-0.9,4.059
		c-0.036,0.313,0.232,0.66,0.203,0.977c-0.052,0.563,0.097,1.084,0.275,1.574c0.599,1.643,1.643,2.84,3.408,3.355
		c0.377,0.111,0.754,0.111,1.103,0.225c0.367,0.121,0.714,0.205,1.104,0.234c1.381,0.105,2.73-0.197,4.097-0.254
		c0.372-0.014,0.569-0.227,0.587-0.576c0.022-0.439,0.019-0.881,0.002-1.318c-0.016-0.402-0.16-0.121-0.322-0.08
		c-0.3,0.072-0.628,0.016-0.938,0.063c-0.292,0.045-0.571,0.207-0.861,0.221c-0.677,0.035-1.366,0.078-2.034-0.01
		c-0.484-0.064-1.021-0.107-1.442-0.266c-0.535-0.203-1.119-0.342-1.613-0.76c-0.776-0.656-0.923-1.541-1.179-2.404
		c-0.091-0.305,0.086-0.398,0.392-0.395C125.017,20.918,126.295,20.91,127.574,20.91z"/>
	<path fill-rule="evenodd" clip-rule="evenodd" fill="#FFFFFF" d="M114.46,18.025c0,2.035-0.037,4.072,0.02,6.105
		c0.021,0.734,0.329,1.35,1.022,1.855c0.751,0.549,1.503,0.707,2.362,0.684c0.436-0.012,0.87-0.02,1.306-0.029
		c0.03-0.467,0.027-0.938,0.099-1.398c0.077-0.492-0.171-0.545-0.546-0.492c-0.668,0.094-1.285-0.01-1.643-0.639
		c-0.215-0.379-0.432-0.824-0.439-1.244c-0.043-2.275-0.026-4.551-0.016-6.826c0.002-0.477,0.054-0.469,0.652-0.418
		c0.477,0.039,0.959,0.027,1.437-0.002c0.214-0.014,0.444-0.094,0.628-0.205c0.354-0.217-0.144-0.322-0.1-0.551
		c0.067-0.348,0.035-0.717,0.007-1.074c-0.009-0.111-0.142-0.307-0.219-0.307c-0.788,0.002-1.577,0.021-2.363,0.074
		c-0.113,0.008-0.206,0.258-0.29-0.041c-0.149-0.535-0.341-1.061-0.465-1.602c-0.048-0.207-0.027-0.391-0.313-0.367
		c-0.119,0.01-0.239,0.002-0.359,0.002c-0.774-0.004-0.778-0.004-0.779,0.727C114.458,14.193,114.46,16.109,114.46,18.025z"/>
	<path fill-rule="evenodd" clip-rule="evenodd" fill="#FFFFFF" d="M136.246,26.686c0.001-0.006,0.001-0.01,0.001-0.016
		c0.199,0,0.399,0.002,0.599,0c0.646-0.008,0.652-0.008,0.653-0.613c0.002-2.676,0.038-5.352-0.022-8.025
		c-0.018-0.74,0.246-1.27,0.797-1.58c0.738-0.414,1.502-0.842,2.411-0.826c0.649,0.01,0.651-0.014,0.654-0.727
		c0.002-0.359,0.022-0.721-0.03-1.072c-0.01-0.064-0.154-0.502-0.492-0.209c-0.098,0.086-0.29,0.098-0.436,0.088
		c-1.023-0.068-1.78,0.523-2.573,1.021c-0.222,0.141-0.363,0.547-0.646,0.391c-0.142-0.078-0.101-0.49-0.141-0.752
		c-0.006-0.039,0.006-0.082-0.001-0.119c-0.123-0.648-1.136-1.037-1.683-0.656c-0.329,0.229-0.234,0.559-0.234,0.861
		c-0.004,3.674-0.005,7.348,0.001,11.02c0.001,0.389-0.069,0.861,0.123,1.133C135.354,26.783,135.893,26.668,136.246,26.686z"/>
	<path fill-rule="evenodd" clip-rule="evenodd" fill="#FFFFFF" d="M106.061,20.203c0,1.637-0.008,3.273,0.004,4.91
		c0.003,0.508,0.053,1.016,0.081,1.521c0.474,0.012,0.948,0.033,1.423,0.033c0.888,0.002,0.891-0.002,0.891-0.854
		c0.002-2.676-0.002-5.35,0.006-8.025c0-0.26-0.09-0.535,0.16-0.773c0.788-0.748,1.66-1.326,2.782-1.381
		c0.893-0.041,0.895-0.02,0.893-0.979c-0.001-0.277,0.037-0.566-0.027-0.83c-0.029-0.121-0.341-0.303-0.393-0.266
		c-0.442,0.307-0.949,0.014-1.374,0.166c-0.447,0.164-0.854,0.451-1.262,0.707c-0.353,0.221-0.711,0.703-1.016,0.666
		c-0.523-0.066-0.133-0.768-0.467-1.137c-0.349-0.385-0.723-0.654-1.274-0.488c-0.42,0.129-0.436,0.48-0.433,0.859
		C106.066,16.289,106.061,18.246,106.061,20.203z"/>
	<path fill-rule="evenodd" clip-rule="evenodd" fill="#0A423D" d="M77.98,17.602c0-2.721,0.007-5.439-0.008-8.16
		C77.969,9.049,78.004,8.844,78.48,8.9c0.622,0.074,1.252,0.074,1.878,0.107c0.007,0.598,0.019,1.195,0.021,1.791
		c0.003,1.041-0.005,2.08,0.004,3.121c0.003,0.381,0.161,0.102,0.315,0.096c0.658-0.023,1.24-0.398,1.924-0.324
		c0.453,0.047,0.85-0.404,1.412-0.098c0.374,0.203,0.943,0.006,1.382,0.135c0.853,0.246,1.689,0.596,2.417,1.1
		c0.739,0.514,1.169,1.332,1.401,2.166c0.295,1.061,0.637,2.148,0.495,3.273c-0.141,1.117-0.248,2.281-0.738,3.289
		c-0.593,1.221-1.54,2.176-2.887,2.635c-1.538,0.525-3.129,0.506-4.722,0.479c-0.608-0.391-1.29-0.193-1.94-0.242
		c-0.151-0.01-0.365,0.012-0.44-0.076c-0.283-0.33-0.818,0.039-0.955-0.26c-0.151-0.332-0.066-0.775-0.066-1.17
		C77.979,22.48,77.98,20.041,77.98,17.602z M80.38,20.17c0,1.195-0.005,2.391,0.003,3.586c0.003,0.471,0.18,0.73,0.529,0.748
		c0.613,0.029,1.219-0.012,1.819,0.23c0.489,0.199,0.962-0.18,1.449-0.215c1.477-0.111,2.604-1.4,2.942-2.68
		c0.235-0.889,0.213-1.768,0.215-2.656c0.003-2.018-1.42-3.482-3.494-3.564c-1.092-0.043-2.122,0.164-3.153,0.477
		c-0.239,0.072-0.316,0.127-0.314,0.369C80.385,17.699,80.38,18.934,80.38,20.17z"/>
	<path fill-rule="evenodd" clip-rule="evenodd" fill="#313131" d="M102.7,21.631c0,1.518-0.007,3.035,0.006,4.553
		c0.003,0.324-0.028,0.471-0.428,0.508c-0.556,0.051-0.878-0.219-1.214-0.57c-0.373-0.391-0.391-0.393-0.913-0.139
		c-1.473,0.715-3.056,0.801-4.624,0.646c-0.614-0.063-1.281-0.277-1.882-0.646c-0.523-0.322-0.921-0.744-1.288-1.178
		c-0.267-0.316-0.391-0.811-0.439-1.24c-0.07-0.631-0.044-1.277-0.008-1.914c0.02-0.33,0.118-0.666,0.241-0.977
		c0.081-0.205,0.268-0.369,0.413-0.547c0.688-0.844,1.617-1.146,2.653-1.418c1.303-0.342,2.583-0.076,3.866-0.195
		c0.066-0.006,0.139,0.049,0.209,0.068c1.229,0.361,1.412,0.217,1.247-0.982c-0.15-1.09-1.051-1.934-2.159-1.963
		c-1.117-0.029-2.236-0.023-3.354,0.004c-0.328,0.01-0.649,0.174-0.98,0.223c-0.302,0.043-0.631-0.055-0.871,0.236
		c-0.008,0.01-0.291-0.127-0.301-0.213c-0.038-0.314-0.017-0.637-0.015-0.955c0.005-0.719,0.169-0.908,0.907-0.979
		c0.768-0.072,1.506-0.326,2.299-0.26c0.454,0.037,0.845-0.391,1.41-0.102c0.414,0.211,1.01,0.029,1.502,0.133
		c0.759,0.158,1.565,0.299,2.188,0.768c0.606,0.457,1.124,1.031,1.397,1.805c0.098,0.273,0.129,0.52,0.131,0.781
		C102.705,18.596,102.7,20.113,102.7,21.631z M97.788,20.371c-0.003,0.02-0.005,0.039-0.009,0.059c-0.516,0-1.035-0.025-1.55,0.012
		c-0.249,0.018-0.496,0.137-0.735,0.232c-0.428,0.168-0.893,0.35-1.099,0.768c-0.192,0.393-0.362,0.879-0.3,1.287
		c0.068,0.445,0.193,0.928,0.554,1.318c0.425,0.463,0.97,0.584,1.511,0.689c0.969,0.189,1.915-0.146,2.857-0.299
		c0.52-0.084,1.074-0.389,1.448-0.762c0.202-0.201,0.067-0.75,0.073-1.141c0.006-0.518,0.014-1.035-0.01-1.551
		c-0.005-0.109-0.135-0.289-0.226-0.303C99.468,20.563,98.627,20.471,97.788,20.371z"/>
	<path fill-rule="evenodd" clip-rule="evenodd" fill="#313131" d="M127.574,20.91c-1.279,0-2.558,0.008-3.836-0.006
		c-0.306-0.004-0.482,0.09-0.392,0.395c0.256,0.863,0.402,1.748,1.179,2.404c0.494,0.418,1.078,0.557,1.613,0.76
		c0.422,0.158,0.958,0.201,1.442,0.266c0.668,0.088,1.357,0.045,2.034,0.01c0.29-0.014,0.569-0.176,0.861-0.221
		c0.31-0.047,0.638,0.01,0.938-0.063c0.162-0.041,0.307-0.322,0.322,0.08c0.017,0.438,0.021,0.879-0.002,1.318
		c-0.018,0.35-0.215,0.563-0.587,0.576c-1.366,0.057-2.716,0.359-4.097,0.254c-0.391-0.029-0.737-0.113-1.104-0.234
		c-0.349-0.113-0.726-0.113-1.103-0.225c-1.766-0.516-2.81-1.713-3.408-3.355c-0.179-0.49-0.327-1.012-0.275-1.574
		c0.029-0.316-0.239-0.664-0.203-0.977c0.157-1.381,0.107-2.803,0.9-4.059c0.985-1.561,2.313-2.494,4.201-2.559
		c0.412-0.014,0.837,0.139,1.249-0.186c0.139-0.111,0.562,0.219,0.827,0.176c0.955-0.152,1.699,0.354,2.452,0.756
		c0.773,0.412,1.101,1.211,1.403,2.006c0.183,0.48,0.247,0.955,0.234,1.461c-0.019,0.76,0.004,1.52-0.008,2.277
		c-0.008,0.518-0.184,0.709-0.688,0.715C130.211,20.918,128.893,20.91,127.574,20.91z M126.711,18.75c0.914,0,1.829,0.004,2.743,0
		c0.594-0.004,0.756-0.197,0.599-0.773c-0.086-0.318-0.228-0.623-0.37-0.92c-0.383-0.797-0.937-1.354-1.889-1.441
		c-0.403-0.037-0.862-0.441-1.191-0.195c-0.421,0.314-0.881,0.041-1.221,0.236c-0.826,0.477-1.609,1.033-1.807,2.08
		c-0.04,0.215-0.145,0.418-0.208,0.629c-0.063,0.213-0.047,0.387,0.243,0.385C124.644,18.75,125.678,18.75,126.711,18.75z"/>
	<path fill-rule="evenodd" clip-rule="evenodd" fill="#313131" d="M114.46,18.025c0-1.916-0.002-3.832,0.001-5.748
		c0.001-0.73,0.005-0.73,0.779-0.727c0.12,0,0.24,0.008,0.359-0.002c0.285-0.023,0.265,0.16,0.313,0.367
		c0.124,0.541,0.315,1.066,0.465,1.602c0.084,0.299,0.177,0.049,0.29,0.041c0.786-0.053,1.575-0.072,2.363-0.074
		c0.077,0,0.21,0.195,0.219,0.307c0.028,0.357,0.061,0.727-0.007,1.074c-0.044,0.229,0.454,0.334,0.1,0.551
		c-0.184,0.111-0.414,0.191-0.628,0.205c-0.478,0.029-0.96,0.041-1.437,0.002c-0.599-0.051-0.65-0.059-0.652,0.418
		c-0.011,2.275-0.027,4.551,0.016,6.826c0.008,0.42,0.225,0.865,0.439,1.244c0.357,0.629,0.975,0.732,1.643,0.639
		c0.375-0.053,0.623,0,0.546,0.492c-0.071,0.461-0.068,0.932-0.099,1.398c-0.436,0.01-0.87,0.018-1.306,0.029
		c-0.859,0.023-1.611-0.135-2.362-0.684c-0.693-0.506-1.002-1.121-1.022-1.855C114.423,22.098,114.46,20.061,114.46,18.025z"/>
	<path fill-rule="evenodd" clip-rule="evenodd" fill="#313131" d="M136.246,26.686c-0.354-0.018-0.892,0.098-1.02-0.082
		c-0.192-0.271-0.122-0.744-0.123-1.133c-0.006-3.672-0.005-7.346-0.001-11.02c0-0.303-0.095-0.633,0.234-0.861
		c0.547-0.381,1.56,0.008,1.683,0.656c0.007,0.037-0.005,0.08,0.001,0.119c0.04,0.262-0.001,0.674,0.141,0.752
		c0.283,0.156,0.425-0.25,0.646-0.391c0.793-0.498,1.55-1.09,2.573-1.021c0.146,0.01,0.338-0.002,0.436-0.088
		c0.338-0.293,0.482,0.145,0.492,0.209c0.053,0.352,0.032,0.713,0.03,1.072c-0.003,0.713-0.005,0.736-0.654,0.727
		c-0.909-0.016-1.673,0.412-2.411,0.826c-0.551,0.311-0.814,0.84-0.797,1.58c0.061,2.674,0.024,5.35,0.022,8.025
		c-0.001,0.605-0.007,0.605-0.653,0.613c-0.199,0.002-0.399,0-0.599,0C136.247,26.676,136.247,26.68,136.246,26.686z"/>
	<path fill-rule="evenodd" clip-rule="evenodd" fill="#626262" d="M106.061,20.203c0-1.957,0.006-3.914-0.006-5.869
		c-0.003-0.379,0.013-0.73,0.433-0.859c0.552-0.166,0.926,0.104,1.274,0.488c0.334,0.369-0.057,1.07,0.467,1.137
		c0.305,0.037,0.663-0.445,1.016-0.666c0.408-0.256,0.814-0.543,1.262-0.707c0.425-0.152,0.932,0.141,1.374-0.166
		c0.052-0.037,0.363,0.145,0.393,0.266c0.064,0.264,0.026,0.553,0.027,0.83c0.002,0.959,0,0.938-0.893,0.979
		c-1.122,0.055-1.994,0.633-2.782,1.381c-0.25,0.238-0.16,0.514-0.16,0.773c-0.008,2.676-0.004,5.35-0.006,8.025
		c0,0.852-0.003,0.855-0.891,0.854c-0.475,0-0.949-0.021-1.423-0.033c-0.028-0.506-0.078-1.014-0.081-1.521
		C106.053,23.477,106.061,21.84,106.061,20.203z"/>
	<path fill-rule="evenodd" clip-rule="evenodd" fill="#FFFFFF" d="M80.38,20.17c0-1.236,0.005-2.471-0.004-3.705
		c-0.002-0.242,0.075-0.297,0.314-0.369c1.032-0.313,2.061-0.52,3.153-0.477c2.074,0.082,3.497,1.547,3.494,3.564
		c-0.001,0.889,0.02,1.768-0.215,2.656c-0.338,1.279-1.465,2.568-2.942,2.68c-0.487,0.035-0.96,0.414-1.449,0.215
		c-0.6-0.242-1.206-0.201-1.819-0.23c-0.35-0.018-0.526-0.277-0.529-0.748C80.375,22.561,80.38,21.365,80.38,20.17z"/>
	<path fill-rule="evenodd" clip-rule="evenodd" fill="#FFFFFF" d="M97.788,20.371c0.839,0.1,1.68,0.191,2.516,0.311
		c0.091,0.014,0.221,0.193,0.226,0.303c0.023,0.516,0.016,1.033,0.01,1.551c-0.006,0.391,0.129,0.939-0.073,1.141
		c-0.374,0.373-0.929,0.678-1.448,0.762c-0.942,0.152-1.889,0.488-2.857,0.299c-0.541-0.105-1.086-0.227-1.511-0.689
		c-0.36-0.391-0.485-0.873-0.554-1.318c-0.063-0.408,0.107-0.895,0.3-1.287c0.206-0.418,0.671-0.6,1.099-0.768
		c0.239-0.096,0.486-0.215,0.735-0.232c0.515-0.037,1.034-0.012,1.55-0.012C97.783,20.41,97.785,20.391,97.788,20.371z"/>
	<path fill-rule="evenodd" clip-rule="evenodd" fill="#FFFFFF" d="M126.711,18.75c-1.033,0-2.067,0-3.101,0
		c-0.29,0.002-0.306-0.172-0.243-0.385c0.063-0.211,0.168-0.414,0.208-0.629c0.197-1.047,0.98-1.604,1.807-2.08
		c0.34-0.195,0.8,0.078,1.221-0.236c0.329-0.246,0.788,0.158,1.191,0.195c0.952,0.088,1.506,0.645,1.889,1.441
		c0.143,0.297,0.284,0.602,0.37,0.92c0.157,0.576-0.005,0.77-0.599,0.773C128.54,18.754,127.625,18.75,126.711,18.75z"/>
	<g>
		<path fill="#0A423D" d="M67.61,38.619c0,0.031-0.031,0.047-0.094,0.047c-0.074,0-0.188-0.006-0.34-0.018s-0.266-0.018-0.34-0.018
			c-0.082,0-0.204,0.006-0.366,0.018s-0.284,0.018-0.366,0.018c-0.09,0-0.158-0.049-0.205-0.146
			c-0.125-0.266-0.48-1.088-1.066-2.467c-0.059-0.141-0.201-0.227-0.428-0.258c-0.051-0.004-0.229-0.006-0.533-0.006
			c-0.539,0-0.859,0.008-0.961,0.023c-0.082,0.012-0.123,0.111-0.123,0.299c0,0.273,0.013,0.683,0.038,1.228
			s0.038,0.952,0.038,1.222c0,0.082-0.039,0.123-0.117,0.123s-0.196-0.009-0.354-0.026s-0.278-0.026-0.36-0.026
			c-0.066,0-0.168,0.006-0.305,0.018s-0.238,0.018-0.305,0.018c-0.098,0-0.146-0.045-0.146-0.135c0-0.434,0.021-1.085,0.062-1.954
			s0.062-1.521,0.062-1.954c0-1.234-0.045-2.551-0.135-3.949l-0.006-0.094c-0.004-0.078,0.078-0.117,0.246-0.117
			c0.336,0,0.839-0.009,1.509-0.026s1.171-0.026,1.503-0.026c0.867,0,1.563,0.207,2.086,0.621c0.578,0.457,0.867,1.105,0.867,1.945
			c0,0.578-0.078,1.033-0.234,1.365c-0.164,0.352-0.469,0.686-0.914,1.002c-0.074,0.051-0.111,0.1-0.111,0.146
			c0,0.055,0.233,0.574,0.7,1.559S67.61,38.557,67.61,38.619z M66.005,33.305c0-0.707-0.203-1.18-0.609-1.418
			c-0.301-0.176-0.842-0.264-1.623-0.264c-0.633,0-0.955,0.051-0.967,0.152c-0.027,0.211-0.041,0.775-0.041,1.693v1.119
			c0.012,0.008,0.037,0.016,0.076,0.023c0.07,0.008,0.186,0.018,0.346,0.029c0.371,0.02,0.771,0.029,1.201,0.029
			C65.466,34.67,66.005,34.215,66.005,33.305z"/>
		<path fill="#484949" d="M73.958,35.52c0,0.289-0.125,0.482-0.375,0.58c-0.168,0.063-1.377,0.178-3.627,0.346
			c0.051,0.344,0.24,0.637,0.568,0.879c0.313,0.23,0.648,0.346,1.008,0.346c0.617,0,1.184-0.199,1.699-0.598
			c0.063-0.051,0.125-0.102,0.188-0.152c0.031,0,0.052,0.004,0.062,0.012s0.083,0.144,0.22,0.407s0.205,0.405,0.205,0.425
			c0,0.023-0.031,0.068-0.094,0.135c-0.574,0.609-1.311,0.914-2.209,0.914c-0.906,0-1.629-0.271-2.168-0.812
			s-0.809-1.263-0.809-2.165c0-0.805,0.258-1.506,0.773-2.104c0.543-0.621,1.209-0.932,1.998-0.932c0.734,0,1.348,0.27,1.84,0.809
			C73.718,34.133,73.958,34.77,73.958,35.52z M72.564,35.162c0-0.324-0.128-0.611-0.384-0.861s-0.544-0.375-0.864-0.375
			c-0.359,0-0.679,0.145-0.958,0.434s-0.419,0.613-0.419,0.973c0,0.082,0.07,0.123,0.211,0.123c0.578,0,1.27-0.059,2.074-0.176
			C72.451,35.248,72.564,35.209,72.564,35.162z"/>
		<path fill="#484949" d="M78.121,36.861c0,0.582-0.232,1.049-0.697,1.4c-0.422,0.32-0.936,0.48-1.541,0.48
			c-0.234,0-0.367-0.006-0.398-0.018c-0.066-0.031-0.1-0.127-0.1-0.287c0-0.086-0.011-0.215-0.032-0.387s-0.032-0.299-0.032-0.381
			c0-0.051,0.035-0.084,0.105-0.1c0.051-0.012,0.123-0.012,0.217,0c0.121,0.012,0.18,0.018,0.176,0.018
			c0.738,0,1.107-0.227,1.107-0.68c0-0.215-0.162-0.412-0.486-0.592c-0.527-0.289-0.83-0.467-0.908-0.533
			c-0.324-0.277-0.486-0.641-0.486-1.09c0-0.586,0.221-1.043,0.662-1.371c0.398-0.293,0.902-0.439,1.512-0.439
			c0.055,0,0.095,0.025,0.12,0.076s0.074,0.209,0.146,0.475s0.108,0.426,0.108,0.48c0,0.043-0.037,0.07-0.111,0.082
			c-0.25,0.035-0.502,0.068-0.756,0.1c-0.301,0.082-0.451,0.246-0.451,0.492c0,0.176,0.158,0.354,0.475,0.533
			c0.469,0.262,0.766,0.451,0.891,0.568C77.961,35.994,78.121,36.385,78.121,36.861z"/>
		<path fill="#484949" d="M84.873,35.813c0,0.816-0.268,1.514-0.803,2.092c-0.547,0.598-1.225,0.896-2.033,0.896
			c-0.813,0-1.492-0.297-2.039-0.891c-0.535-0.574-0.803-1.27-0.803-2.086s0.268-1.512,0.803-2.086
			c0.551-0.586,1.23-0.879,2.039-0.879c0.805,0,1.48,0.293,2.027,0.879C84.604,34.309,84.873,35,84.873,35.813z M83.637,35.824
			c0-0.477-0.146-0.883-0.439-1.219c-0.305-0.355-0.691-0.533-1.16-0.533s-0.857,0.176-1.166,0.527
			c-0.293,0.34-0.439,0.748-0.439,1.225c0,0.469,0.148,0.875,0.445,1.219c0.313,0.363,0.699,0.545,1.16,0.545
			c0.465,0,0.852-0.182,1.16-0.545C83.49,36.699,83.637,36.293,83.637,35.824z"/>
		<path fill="#484949" d="M91.725,33.352c0,0.285-0.012,0.716-0.035,1.292s-0.035,1.009-0.035,1.298c0,0.285,0.01,0.712,0.027,1.28
			s0.025,0.995,0.025,1.28c0,0.078-0.037,0.129-0.111,0.152c-0.031,0.008-0.428,0.012-1.189,0.012c-0.047,0-0.075-0.146-0.085-0.439
			s-0.032-0.439-0.067-0.439c-0.02,0-0.049,0.018-0.088,0.053c-0.652,0.566-1.297,0.85-1.934,0.85c-0.863,0-1.434-0.313-1.711-0.938
			c-0.172-0.387-0.258-1.082-0.258-2.086c0-0.906,0.072-1.674,0.217-2.303c0.035-0.152,0.1-0.229,0.193-0.229
			c0.113,0,0.283,0.002,0.51,0.006s0.396,0.006,0.51,0.006c0.078,0,0.117,0.043,0.117,0.129c0,0.152-0.025,0.406-0.076,0.762
			c-0.055,0.379-0.084,0.646-0.088,0.803c-0.012,0.234-0.018,0.492-0.018,0.773c0,0.684,0.049,1.143,0.146,1.377
			c0.168,0.422,0.541,0.633,1.119,0.633c0.246,0,0.537-0.121,0.873-0.363c0.355-0.254,0.539-0.498,0.551-0.732
			c0.02-0.293,0.029-1.324,0.029-3.094c0-0.191,0.08-0.287,0.24-0.287h0.967C91.668,33.146,91.725,33.215,91.725,33.352z"/>
		<path fill="#484949" d="M96.872,33.164c0,0.43-0.029,0.82-0.088,1.172c-0.012,0.09-0.051,0.135-0.117,0.135
			c-0.082,0-0.206-0.009-0.372-0.026s-0.292-0.026-0.378-0.026c-0.492,0-0.807,0.139-0.943,0.416
			c-0.082,0.168-0.123,0.518-0.123,1.049v0.645c0,0.219,0.009,0.551,0.026,0.996s0.026,0.777,0.026,0.996
			c0,0.105-0.045,0.158-0.135,0.158c-0.121,0-0.305-0.002-0.551-0.006s-0.43-0.006-0.551-0.006c-0.09,0-0.135-0.049-0.135-0.146
			c0-0.316,0.005-0.793,0.015-1.43s0.015-1.115,0.015-1.436c0-0.965-0.09-1.74-0.27-2.326c-0.008-0.031-0.012-0.055-0.012-0.07
			c0-0.047,0.025-0.08,0.076-0.1c0.145-0.016,0.348-0.039,0.609-0.07c0.422-0.078,0.617-0.117,0.586-0.117
			c0.063,0,0.104,0.115,0.123,0.346s0.055,0.346,0.105,0.346c0.008,0,0.018-0.004,0.029-0.012c0.16-0.102,0.32-0.203,0.48-0.305
			c0.176-0.105,0.355-0.184,0.539-0.234c0.152-0.047,0.348-0.07,0.586-0.07C96.72,33.041,96.872,33.082,96.872,33.164z"/>
		<path fill="#484949" d="M102.206,33.352c0,0.086-0.045,0.277-0.135,0.574s-0.152,0.445-0.188,0.445
			c-0.176-0.078-0.353-0.156-0.53-0.234s-0.372-0.117-0.583-0.117c-0.48,0-0.881,0.178-1.201,0.533s-0.48,0.775-0.48,1.26
			c0,0.477,0.16,0.889,0.48,1.236c0.328,0.359,0.729,0.539,1.201,0.539c0.262,0,0.52-0.064,0.773-0.193s0.365-0.193,0.334-0.193
			c0.051,0,0.107,0.164,0.17,0.492c0.059,0.297,0.088,0.502,0.088,0.615c0,0.121-0.229,0.24-0.686,0.357
			c-0.383,0.098-0.666,0.146-0.85,0.146c-0.805,0-1.484-0.301-2.039-0.902c-0.543-0.586-0.814-1.285-0.814-2.098
			c0-0.828,0.266-1.531,0.797-2.109c0.547-0.594,1.229-0.891,2.045-0.891c0.547,0,1.047,0.139,1.5,0.416
			C102.167,33.275,102.206,33.316,102.206,33.352z"/>
		<path fill="#484949" d="M108.502,35.52c0,0.289-0.125,0.482-0.375,0.58c-0.168,0.063-1.377,0.178-3.627,0.346
			c0.051,0.344,0.24,0.637,0.568,0.879c0.313,0.23,0.648,0.346,1.008,0.346c0.617,0,1.184-0.199,1.699-0.598
			c0.063-0.051,0.125-0.102,0.188-0.152c0.031,0,0.052,0.004,0.062,0.012s0.083,0.144,0.22,0.407s0.205,0.405,0.205,0.425
			c0,0.023-0.031,0.068-0.094,0.135c-0.574,0.609-1.311,0.914-2.209,0.914c-0.906,0-1.629-0.271-2.168-0.812
			s-0.809-1.263-0.809-2.165c0-0.805,0.258-1.506,0.773-2.104c0.543-0.621,1.209-0.932,1.998-0.932c0.734,0,1.348,0.27,1.84,0.809
			C108.262,34.133,108.502,34.77,108.502,35.52z M107.107,35.162c0-0.324-0.128-0.611-0.384-0.861s-0.544-0.375-0.864-0.375
			c-0.359,0-0.679,0.145-0.958,0.434s-0.419,0.613-0.419,0.973c0,0.082,0.07,0.123,0.211,0.123c0.578,0,1.27-0.059,2.074-0.176
			C106.994,35.248,107.107,35.209,107.107,35.162z"/>
		<path fill="#0A423D" d="M118.228,31.037c-0.078,0.129-0.186,0.324-0.322,0.586c-0.043,0.121-0.119,0.293-0.229,0.516
			c-0.023,0.035-0.055,0.053-0.094,0.053c0.004,0-0.185-0.069-0.565-0.208s-0.694-0.208-0.94-0.208
			c-0.719,0-1.078,0.316-1.078,0.949c0,0.352,0.252,0.658,0.756,0.92c0.848,0.441,1.316,0.695,1.406,0.762
			c0.504,0.402,0.756,0.945,0.756,1.629c0,0.875-0.346,1.564-1.037,2.068c-0.621,0.453-1.385,0.68-2.291,0.68
			c-0.422,0-0.648-0.047-0.68-0.141c-0.016-0.148-0.051-0.365-0.105-0.65c-0.031-0.117-0.08-0.293-0.146-0.527
			c-0.012-0.035-0.018-0.068-0.018-0.1c0-0.055,0.029-0.082,0.088-0.082c0.094,0,0.237,0.01,0.431,0.029s0.339,0.029,0.437,0.029
			c1.211,0,1.816-0.391,1.816-1.172c0-0.383-0.244-0.715-0.732-0.996c-0.891-0.508-1.346-0.771-1.365-0.791
			c-0.492-0.398-0.738-0.934-0.738-1.605c0-0.727,0.238-1.309,0.715-1.746c0.465-0.422,1.066-0.633,1.805-0.633
			c0.313,0,0.672,0.051,1.078,0.152c0.441,0.113,0.773,0.25,0.996,0.41C118.188,30.977,118.208,31.002,118.228,31.037z"/>
		<path fill="#484949" d="M124.839,38.461c0,0.145-0.041,0.217-0.123,0.217c-0.121,0-0.305-0.002-0.551-0.006
			s-0.43-0.006-0.551-0.006c-0.098,0-0.146-0.064-0.146-0.193c0-0.188,0.007-0.471,0.021-0.85s0.021-0.664,0.021-0.855
			c0-0.18-0.007-0.452-0.021-0.817s-0.021-0.64-0.021-0.823c0-0.703-0.332-1.055-0.996-1.055c-0.215,0-0.496,0.107-0.844,0.322
			c-0.371,0.23-0.557,0.441-0.557,0.633v3.48c0,0.113-0.041,0.17-0.123,0.17c-0.121,0-0.303-0.002-0.545-0.006
			s-0.424-0.006-0.545-0.006c-0.09,0-0.135-0.053-0.135-0.158v-2.83c0-0.461-0.025-1.441-0.076-2.941
			c-0.008-0.465-0.041-1.152-0.1-2.063c-0.008-0.047-0.012-0.078-0.012-0.094c0-0.066,0.023-0.107,0.07-0.123
			c0.066-0.023,0.287-0.035,0.662-0.035c0.082,0,0.205-0.015,0.369-0.044s0.283-0.044,0.357-0.044c0.051,0,0.076,0.037,0.076,0.111
			c0,0.367-0.015,0.919-0.044,1.655s-0.044,1.288-0.044,1.655c0,0.09,0.016,0.137,0.047,0.141c0.199-0.168,0.457-0.371,0.773-0.609
			c0.383-0.238,0.787-0.357,1.213-0.357c0.734,0,1.24,0.219,1.518,0.656c0.199,0.32,0.299,0.828,0.299,1.523
			c0,0.121-0.003,0.308-0.009,0.56s-0.009,0.438-0.009,0.56c0,0.25,0.004,0.623,0.012,1.119S124.839,38.215,124.839,38.461z"/>
		<path fill="#484949" d="M132.259,33.363c0,0.016-0.006,0.051-0.018,0.105c-0.152,0.895-0.229,1.666-0.229,2.314
			c0,0.039,0.049,0.916,0.146,2.631l0.006,0.082c0.004,0.113-0.048,0.17-0.155,0.17s-0.27,0.013-0.486,0.038
			s-0.378,0.038-0.483,0.038c-0.074,0-0.131-0.137-0.17-0.41s-0.076-0.41-0.111-0.41c-0.023,0-0.129,0.076-0.316,0.229
			c-0.23,0.188-0.445,0.33-0.645,0.428c-0.309,0.156-0.617,0.234-0.926,0.234c-0.758,0-1.396-0.303-1.916-0.908
			c-0.492-0.578-0.738-1.252-0.738-2.021c0-0.867,0.248-1.584,0.744-2.15c0.52-0.59,1.203-0.885,2.051-0.885
			c0.598,0,1.119,0.207,1.564,0.621c0.066,0.078,0.17,0.191,0.311,0.34c0.012,0.012,0.023,0.018,0.035,0.018
			c0.023,0,0.057-0.123,0.1-0.369s0.098-0.369,0.164-0.369c0.105,0,0.303,0.029,0.592,0.088
			C132.099,33.246,132.259,33.309,132.259,33.363z M130.765,35.813c0-0.48-0.143-0.893-0.428-1.236
			c-0.301-0.371-0.686-0.557-1.154-0.557s-0.859,0.184-1.172,0.551c-0.301,0.352-0.451,0.766-0.451,1.242
			c0,0.473,0.15,0.883,0.451,1.23c0.313,0.363,0.703,0.545,1.172,0.545c0.457,0,0.84-0.186,1.148-0.557
			C130.62,36.684,130.765,36.277,130.765,35.813z"/>
		<path fill="#484949" d="M137.166,33.164c0,0.43-0.029,0.82-0.088,1.172c-0.012,0.09-0.051,0.135-0.117,0.135
			c-0.082,0-0.206-0.009-0.372-0.026s-0.292-0.026-0.378-0.026c-0.492,0-0.807,0.139-0.943,0.416
			c-0.082,0.168-0.123,0.518-0.123,1.049v0.645c0,0.219,0.009,0.551,0.026,0.996s0.026,0.777,0.026,0.996
			c0,0.105-0.045,0.158-0.135,0.158c-0.121,0-0.305-0.002-0.551-0.006s-0.43-0.006-0.551-0.006c-0.09,0-0.135-0.049-0.135-0.146
			c0-0.316,0.005-0.793,0.015-1.43s0.015-1.115,0.015-1.436c0-0.965-0.09-1.74-0.27-2.326c-0.008-0.031-0.012-0.055-0.012-0.07
			c0-0.047,0.025-0.08,0.076-0.1c0.145-0.016,0.348-0.039,0.609-0.07c0.422-0.078,0.617-0.117,0.586-0.117
			c0.063,0,0.104,0.115,0.123,0.346s0.055,0.346,0.105,0.346c0.008,0,0.018-0.004,0.029-0.012c0.16-0.102,0.32-0.203,0.48-0.305
			c0.176-0.105,0.355-0.184,0.539-0.234c0.152-0.047,0.348-0.07,0.586-0.07C137.014,33.041,137.166,33.082,137.166,33.164z"/>
		<path fill="#484949" d="M139.934,31.658c0,0.48-0.268,0.721-0.803,0.721c-0.543,0-0.814-0.24-0.814-0.721
			c0-0.215,0.084-0.393,0.252-0.533c0.156-0.133,0.344-0.199,0.563-0.199s0.407,0.068,0.565,0.205S139.934,31.443,139.934,31.658z
			 M139.893,33.246c0,0.301-0.019,0.755-0.056,1.362s-0.056,1.063-0.056,1.368c0,0.285,0.006,0.712,0.018,1.28
			s0.018,0.993,0.018,1.274c0,0.082-0.035,0.123-0.105,0.123h-1.143c-0.082,0-0.123-0.08-0.123-0.24c0-0.27,0.007-0.675,0.021-1.216
			s0.021-0.948,0.021-1.222c0-0.305-0.022-0.762-0.067-1.371s-0.067-1.066-0.067-1.371c0-0.066,0.041-0.1,0.123-0.1
			c0.07,0,0.179,0.01,0.325,0.029s0.257,0.029,0.331,0.029s0.185-0.01,0.331-0.029s0.257-0.029,0.331-0.029
			C139.859,33.135,139.893,33.172,139.893,33.246z"/>
		<path fill="#484949" d="M146.815,38.549c0,0.086-0.039,0.129-0.117,0.129c-0.129,0-0.321-0.002-0.577-0.006
			s-0.448-0.006-0.577-0.006c-0.07,0-0.105-0.057-0.105-0.17c0-0.191,0.006-0.482,0.018-0.873s0.018-0.684,0.018-0.879
			c0-0.156-0.002-0.39-0.006-0.7s-0.006-0.544-0.006-0.7c0-0.445-0.064-0.76-0.193-0.943c-0.156-0.219-0.445-0.328-0.867-0.328
			c-0.195,0-0.467,0.109-0.814,0.328c-0.367,0.23-0.551,0.436-0.551,0.615v3.516c0,0.098-0.037,0.146-0.111,0.146
			c-0.125,0-0.313-0.002-0.563-0.006s-0.438-0.006-0.563-0.006c-0.082,0-0.123-0.045-0.123-0.135c0-0.309,0.005-0.771,0.015-1.389
			s0.015-1.082,0.015-1.395c0-0.832-0.088-1.6-0.264-2.303c-0.012-0.035-0.018-0.061-0.018-0.076c0-0.039,0.025-0.066,0.076-0.082
			c0.027-0.004,0.251-0.04,0.671-0.108s0.64-0.103,0.659-0.103c0.023,0,0.039,0.031,0.047,0.094c0.02,0.242,0.064,0.486,0.135,0.732
			c0.203-0.16,0.471-0.359,0.803-0.598c0.41-0.25,0.807-0.375,1.189-0.375c0.734,0,1.236,0.213,1.506,0.639
			c0.199,0.313,0.299,0.818,0.299,1.518c0,0.121-0.003,0.307-0.009,0.557s-0.009,0.438-0.009,0.563c0,0.262,0.004,0.652,0.012,1.172
			S146.815,38.287,146.815,38.549z"/>
		<path fill="#484949" d="M153.69,33.205c0,0.469-0.004,1.173-0.012,2.112s-0.012,1.644-0.012,2.112c0,0.93-0.199,1.615-0.598,2.057
			c-0.418,0.469-1.086,0.703-2.004,0.703c-0.887,0-1.604-0.168-2.15-0.504c-0.086-0.055-0.129-0.102-0.129-0.141
			c0,0.043,0.059-0.246,0.176-0.867c0.012-0.066,0.039-0.1,0.082-0.1c0.02,0,0.045,0.01,0.076,0.029
			c0.586,0.336,1.174,0.504,1.764,0.504c0.387,0,0.707-0.086,0.961-0.258c0.293-0.195,0.439-0.479,0.439-0.85
			c0-0.082-0.008-0.266-0.023-0.551c-0.434,0.527-0.984,0.791-1.652,0.791c-0.723,0-1.316-0.26-1.781-0.779
			c-0.445-0.5-0.668-1.115-0.668-1.846c0-0.742,0.215-1.373,0.645-1.893c0.457-0.555,1.051-0.832,1.781-0.832
			c0.645,0,1.156,0.248,1.535,0.744c0.063,0.082,0.107,0.123,0.135,0.123c0.031,0,0.047-0.035,0.047-0.105
			c0-0.051-0.004-0.132-0.012-0.243s-0.012-0.194-0.012-0.249c0-0.234,0.023-0.352,0.07-0.352c0.039,0,0.25,0.036,0.633,0.108
			s0.592,0.116,0.627,0.132C153.663,33.072,153.69,33.123,153.69,33.205z M152.284,35.619c0-0.438-0.119-0.809-0.357-1.113
			c-0.262-0.332-0.605-0.498-1.031-0.498c-0.422,0-0.764,0.168-1.025,0.504c-0.238,0.305-0.357,0.674-0.357,1.107
			c0,0.426,0.121,0.793,0.363,1.102c0.262,0.336,0.602,0.504,1.02,0.504c0.414,0,0.754-0.168,1.02-0.504
			C152.161,36.412,152.284,36.045,152.284,35.619z"/>
	</g>
</g>
<g id="圖層_2">
</g>
</svg>
